<svg width="32" height="38" viewBox="0 0 32 38" fill="none" xmlns="http://www.w3.org/2000/svg">
<path d="M16.636 0.236685C16.4589 0.0841075 16.2315 0 15.9962 0C15.7608 0 15.5334 0.0841075 15.3563 0.236685L0.533634 12.9709C0.366815 13.114 0.232928 13.2904 0.140908 13.4885C0.0488876 13.6865 0.000850256 13.9016 1.83881e-06 14.1193V37.5618C-0.000166523 37.6194 0.0112281 37.6765 0.0335328 37.7298C0.0558375 37.7831 0.0886138 37.8316 0.129984 37.8724C0.171353 37.9132 0.220503 37.9456 0.274617 37.9677C0.328731 37.9898 0.386745 38.0012 0.445335 38.0012H11.2037C11.3055 38.0012 11.4032 37.9614 11.4752 37.8906C11.5472 37.8197 11.5876 37.7236 11.5876 37.6235V23.0772C11.5876 22.977 11.6281 22.881 11.7001 22.8101C11.7721 22.7393 11.8697 22.6995 11.9715 22.6995H20.0131C20.1149 22.6995 20.2126 22.7393 20.2846 22.8101C20.3566 22.881 20.397 22.977 20.397 23.0772V37.6197C20.397 37.7199 20.4375 37.816 20.5095 37.8868C20.5815 37.9576 20.6791 37.9974 20.7809 37.9974H31.538C31.5966 37.9974 31.6546 37.9861 31.7087 37.964C31.7629 37.9419 31.812 37.9095 31.8534 37.8686C31.8948 37.8278 31.9275 37.7794 31.9498 37.7261C31.9721 37.6727 31.9835 37.6156 31.9834 37.558V14.1193C31.9834 13.9005 31.9358 13.6842 31.8438 13.485C31.7517 13.2859 31.6174 13.1084 31.4497 12.9646L16.636 0.236685Z" fill="#92BCCA"/>
</svg>
