<svg width="43" height="39" viewBox="0 0 43 39" fill="none" xmlns="http://www.w3.org/2000/svg">
<path d="M9.39804 2.61108H29.466C30.5389 2.61108 31.6013 2.81531 32.5925 3.2121C33.5837 3.60889 34.4843 4.19047 35.243 4.92364C36.0016 5.65681 36.6034 6.52721 37.014 7.48514C37.4246 8.44307 37.6359 9.46978 37.6359 10.5066V28.4933C37.6359 29.5302 37.4246 30.5569 37.014 31.5148C36.6034 32.4727 36.0016 33.3431 35.243 34.0763C34.4843 34.8095 33.5837 35.3911 32.5925 35.7878C31.6013 36.1846 30.5389 36.3889 29.466 36.3889H10.8544C8.68756 36.3889 6.60951 35.557 5.07736 34.0763C3.5452 32.5956 2.68445 30.5873 2.68445 28.4933V9.09923C2.68445 7.37847 3.39177 5.72818 4.65081 4.51142C5.90986 3.29465 7.61749 2.61108 9.39804 2.61108Z" fill="white" stroke="#BCBCBC" stroke-width="5" stroke-miterlimit="10"/>
<path d="M3.17957 15.5312L15.6601 27.5786C15.8786 27.7892 16.1745 27.9074 16.483 27.9074C16.7915 27.9074 17.0874 27.7892 17.3058 27.5786L40.3155 5.34155" stroke="#9C9C9C" stroke-width="5" stroke-linecap="round" stroke-linejoin="round"/>
</svg>
