<svg width="38" height="39" viewBox="0 0 38 39" fill="none" xmlns="http://www.w3.org/2000/svg">
<g clip-path="url(#clip0)">
<path d="M35.5093 26.9627H3.15823C2.4893 26.8926 1.87036 26.5107 1.43533 25.8995C1.0003 25.2883 0.78419 24.497 0.833756 23.6968V3.76586C0.78419 2.96569 1.0003 2.17438 1.43533 1.56317C1.87036 0.951966 2.4893 0.570023 3.15823 0.5H35.5093C35.8439 0.529008 36.1705 0.636499 36.4703 0.816335C36.7702 0.99617 37.0374 1.24483 37.2568 1.5481C37.4763 1.85137 37.6435 2.20333 37.7491 2.58386C37.8546 2.96438 37.8964 3.36603 37.8721 3.76586V23.6968C37.8964 24.0966 37.8546 24.4983 37.7491 24.8788C37.6435 25.2593 37.4763 25.6113 37.2568 25.9146C37.0374 26.2178 36.7702 26.4665 36.4703 26.6463C36.1705 26.8262 35.8439 26.9336 35.5093 26.9627Z" fill="#BCBCBC"/>
<path d="M17.4368 26.9625C16.4916 33.1585 4.00079 38.4999 4.00079 38.4999C5.86955 36.9651 7.40966 34.9262 8.49648 32.5481C9.28453 30.8035 9.77508 28.8894 9.9397 26.9167L17.4368 26.9625Z" fill="#BCBCBC"/>
</g>
<defs>
<clipPath id="clip0">
<rect width="37" height="38" fill="white" transform="translate(0.833374 0.5)"/>
</clipPath>
</defs>
</svg>
