<svg width="35" height="39" viewBox="0 0 35 39" fill="none" xmlns="http://www.w3.org/2000/svg">
<g clip-path="url(#clip0)">
<path d="M33.2161 21.1354L3.04986 38.2425C2.75796 38.4088 2.42661 38.4966 2.08919 38.4971C1.75177 38.4975 1.42019 38.4105 1.12786 38.245C0.835522 38.0794 0.592758 37.841 0.424017 37.5539C0.255276 37.2668 0.16652 36.941 0.166687 36.6094V2.39211C0.168573 2.06143 0.258728 1.73703 0.428144 1.45131C0.597561 1.16559 0.840308 0.928555 1.13214 0.763885C1.42396 0.599216 1.75466 0.512672 2.09118 0.512905C2.4277 0.513142 2.75827 0.60014 3.04986 0.765217L33.2161 17.8661C33.5083 18.0316 33.751 18.2699 33.9198 18.5568C34.0885 18.8438 34.1774 19.1694 34.1774 19.5008C34.1774 19.8322 34.0885 20.1578 33.9198 20.4447C33.751 20.7317 33.5083 20.9699 33.2161 21.1354Z" fill="#BCBCBC"/>
</g>
<defs>
<clipPath id="clip0">
<rect width="34" height="38" fill="white" transform="matrix(1 0 0 -1 0.166687 38.5)"/>
</clipPath>
</defs>
</svg>
